<svg width="8" height="8" viewBox="0 0 8 8" fill="none" xmlns="http://www.w3.org/2000/svg">
<g clip-path="url(#clip0_1_22)">
<path d="M4 0.666672C3.56226 0.666672 3.12881 0.752891 2.72439 0.920407C2.31997 1.08792 1.95251 1.33345 1.64298 1.64298C1.01786 2.2681 0.666666 3.11595 0.666666 4.00001C0.666666 5.47334 1.62333 6.72334 2.94667 7.16667C3.11333 7.19334 3.16667 7.09001 3.16667 7.00001V6.43667C2.24333 6.63667 2.04667 5.99001 2.04667 5.99001C1.89333 5.60334 1.67667 5.50001 1.67667 5.50001C1.37333 5.29334 1.7 5.3 1.7 5.3C2.03333 5.32334 2.21 5.64334 2.21 5.64334C2.5 6.15001 2.99 6.00001 3.18 5.92001C3.21 5.70334 3.29667 5.55667 3.39 5.47334C2.65 5.39001 1.87333 5.10334 1.87333 3.83334C1.87333 3.46334 2 3.16667 2.21667 2.93001C2.18333 2.84667 2.06667 2.50001 2.25 2.05001C2.25 2.05001 2.53 1.96001 3.16667 2.39001C3.43 2.31667 3.71667 2.28001 4 2.28001C4.28333 2.28001 4.57 2.31667 4.83333 2.39001C5.47 1.96001 5.75 2.05001 5.75 2.05001C5.93333 2.50001 5.81667 2.84667 5.78333 2.93001C6 3.16667 6.12667 3.46334 6.12667 3.83334C6.12667 5.10667 5.34667 5.38667 4.60333 5.47001C4.72333 5.57334 4.83333 5.77667 4.83333 6.08667V7.00001C4.83333 7.09001 4.88667 7.19667 5.05667 7.16667C6.38 6.72001 7.33333 5.47334 7.33333 4.00001C7.33333 3.56227 7.24711 3.12881 7.0796 2.72439C6.91208 2.31997 6.66655 1.95251 6.35702 1.64298C6.04749 1.33345 5.68003 1.08792 5.27561 0.920407C4.87119 0.752891 4.43774 0.666672 4 0.666672Z" fill="#0F2C59"/>
</g>
<defs>
<clipPath id="clip0_1_22">
<rect width="8" height="8" fill="white"/>
</clipPath>
</defs>
</svg>
