<svg width="8" height="8" viewBox="0 0 8 8" fill="none" xmlns="http://www.w3.org/2000/svg">
<g clip-path="url(#clip0_1_18)">
<path d="M2.6 0.666672H5.4C6.46667 0.666672 7.33333 1.53334 7.33333 2.60001V5.4C7.33333 5.91276 7.12964 6.40451 6.76707 6.76708C6.4045 7.12965 5.91275 7.33334 5.4 7.33334H2.6C1.53333 7.33334 0.666666 6.46667 0.666666 5.4V2.60001C0.666666 2.08725 0.870356 1.5955 1.23293 1.23293C1.5955 0.870362 2.08725 0.666672 2.6 0.666672ZM2.53333 1.33334C2.21507 1.33334 1.90985 1.45977 1.6848 1.68481C1.45976 1.90985 1.33333 2.21508 1.33333 2.53334V5.46667C1.33333 6.13 1.87 6.66667 2.53333 6.66667H5.46667C5.78493 6.66667 6.09015 6.54024 6.31519 6.3152C6.54024 6.09016 6.66667 5.78493 6.66667 5.46667V2.53334C6.66667 1.87001 6.13 1.33334 5.46667 1.33334H2.53333ZM5.75 1.83334C5.86051 1.83334 5.96649 1.87724 6.04463 1.95538C6.12277 2.03352 6.16667 2.1395 6.16667 2.25001C6.16667 2.36051 6.12277 2.46649 6.04463 2.54463C5.96649 2.62277 5.86051 2.66667 5.75 2.66667C5.63949 2.66667 5.53351 2.62277 5.45537 2.54463C5.37723 2.46649 5.33333 2.36051 5.33333 2.25001C5.33333 2.1395 5.37723 2.03352 5.45537 1.95538C5.53351 1.87724 5.63949 1.83334 5.75 1.83334ZM4 2.33334C4.44203 2.33334 4.86595 2.50893 5.17851 2.82149C5.49107 3.13405 5.66667 3.55798 5.66667 4C5.66667 4.44203 5.49107 4.86596 5.17851 5.17852C4.86595 5.49108 4.44203 5.66667 4 5.66667C3.55797 5.66667 3.13405 5.49108 2.82149 5.17852C2.50893 4.86596 2.33333 4.44203 2.33333 4C2.33333 3.55798 2.50893 3.13405 2.82149 2.82149C3.13405 2.50893 3.55797 2.33334 4 2.33334ZM4 3.00001C3.73478 3.00001 3.48043 3.10536 3.29289 3.2929C3.10536 3.48043 3 3.73479 3 4C3 4.26522 3.10536 4.51958 3.29289 4.70711C3.48043 4.89465 3.73478 5 4 5C4.26522 5 4.51957 4.89465 4.70711 4.70711C4.89464 4.51958 5 4.26522 5 4C5 3.73479 4.89464 3.48043 4.70711 3.2929C4.51957 3.10536 4.26522 3.00001 4 3.00001Z" fill="#0F2C59"/>
</g>
<defs>
<clipPath id="clip0_1_18">
<rect width="8" height="8" fill="white"/>
</clipPath>
</defs>
</svg>
