<svg width="8" height="8" viewBox="0 0 8 8" fill="none" xmlns="http://www.w3.org/2000/svg">
<path d="M6.33333 1C6.51014 1 6.67971 1.07024 6.80474 1.19526C6.92976 1.32029 7 1.48986 7 1.66667V6.33333C7 6.51014 6.92976 6.67971 6.80474 6.80474C6.67971 6.92976 6.51014 7 6.33333 7H1.66667C1.48986 7 1.32029 6.92976 1.19526 6.80474C1.07024 6.67971 1 6.51014 1 6.33333V1.66667C1 1.48986 1.07024 1.32029 1.19526 1.19526C1.32029 1.07024 1.48986 1 1.66667 1H6.33333ZM6.16667 6.16667V4.4C6.16667 4.1118 6.05218 3.8354 5.84839 3.63161C5.6446 3.42782 5.3682 3.31333 5.08 3.31333C4.79667 3.31333 4.46667 3.48667 4.30667 3.74667V3.37667H3.37667V6.16667H4.30667V4.52333C4.30667 4.26667 4.51333 4.05667 4.77 4.05667C4.89377 4.05667 5.01247 4.10583 5.09998 4.19335C5.1875 4.28087 5.23667 4.39957 5.23667 4.52333V6.16667H6.16667ZM2.29333 2.85333C2.44185 2.85333 2.58429 2.79433 2.68931 2.68931C2.79433 2.58429 2.85333 2.44185 2.85333 2.29333C2.85333 1.98333 2.60333 1.73 2.29333 1.73C2.14393 1.73 2.00064 1.78935 1.895 1.895C1.78935 2.00064 1.73 2.14393 1.73 2.29333C1.73 2.60333 1.98333 2.85333 2.29333 2.85333ZM2.75667 6.16667V3.37667H1.83333V6.16667H2.75667Z" fill="#0F2C59"/>
</svg>
